<?xml version="1.0" standalone="no"?><svg xmlns="http://www.w3.org/2000/svg" viewBox="0 0 1440 320"><path fill="#0099ff" fill-opacity="1" d="M0,288L26.7,261.3C53.3,235,107,181,160,165.3C213.3,149,267,171,320,170.7C373.3,171,427,149,480,154.7C533.3,160,587,192,640,192C693.3,192,747,160,800,149.3C853.3,139,907,149,960,133.3C1013.3,117,1067,75,1120,85.3C1173.3,96,1227,160,1280,176C1333.3,192,1387,160,1413,144L1440,128L1440,320L1413.3,320C1386.7,320,1333,320,1280,320C1226.7,320,1173,320,1120,320C1066.7,320,1013,320,960,320C906.7,320,853,320,800,320C746.7,320,693,320,640,320C586.7,320,533,320,480,320C426.7,320,373,320,320,320C266.7,320,213,320,160,320C106.7,320,53,320,27,320L0,320Z"></path></svg>